<svg width="160" height="160" viewBox="0 0 160 160" fill="none" xmlns="http://www.w3.org/2000/svg">
<rect x="2.5" y="2.5" width="155" height="155" rx="77.5" fill="white" stroke="#605DFF" stroke-width="5"/>
<path d="M110.3 66C110.3 67.9333 110 69.6667 109.4 71.2C108.867 72.7333 108.1 74.1 107.1 75.3C106.1 76.5 104.933 77.5667 103.6 78.5C102.267 79.4333 100.8 80.3 99.2 81.1C99.9333 81.3667 100.8 81.8 101.8 82.4C102.8 82.9333 103.767 83.7 104.7 84.7C105.633 85.7 106.4 87 107 88.6C107.667 90.1333 108 92.0333 108 94.3C108 97.3 107.367 100.067 106.1 102.6C104.833 105.133 102.933 107.333 100.4 109.2C97.9333 111 94.8667 112.433 91.2 113.5C87.6 114.5 83.4333 115 78.7 115H49L62.5 51.5H88.8C91.4 51.5 93.9667 51.7 96.5 52.1C99.1 52.4333 101.4 53.1333 103.4 54.2C105.467 55.2667 107.133 56.7667 108.4 58.7C109.667 60.5667 110.3 63 110.3 66ZM83.1 78.1C84.5667 78.1 85.8 77.6667 86.8 76.8C87.8667 75.9333 88.7333 74.8667 89.4 73.6C90.0667 72.2667 90.5667 70.8667 90.9 69.4C91.2333 67.8667 91.4 66.5 91.4 65.3C91.4 63.3667 90.9333 61.7333 90 60.4C89.1333 59 87.7333 58.3 85.8 58.3H82.8L78.5 78.1H83.1ZM75.9 108.7C77.9 108.7 79.5667 108.133 80.9 107C82.2333 105.867 83.3333 104.467 84.2 102.8C85.0667 101.133 85.6667 99.4 86 97.6C86.4 95.7333 86.6 94.1 86.6 92.7C86.6 90.3667 86.1 88.5333 85.1 87.2C84.1667 85.8 82.6333 85.1 80.5 85.1H76.8L71.9 108.7H75.9Z" fill="#605DFF"/>
</svg>
