<svg width="100" height="113" viewBox="0 0 100 113" fill="none" xmlns="http://www.w3.org/2000/svg">
<rect x="2.5" y="8.5" width="95" height="95" rx="47.5" fill="white" stroke="#605DFF" stroke-width="5"/>
<path d="M77.17 43.9C77.17 45.64 76.9 47.2 76.36 48.58C75.88 49.96 75.19 51.19 74.29 52.27C73.39 53.35 72.34 54.31 71.14 55.15C69.94 55.99 68.62 56.77 67.18 57.49C67.84 57.73 68.62 58.12 69.52 58.66C70.42 59.14 71.29 59.83 72.13 60.73C72.97 61.63 73.66 62.8 74.2 64.24C74.8 65.62 75.1 67.33 75.1 69.37C75.1 72.07 74.53 74.56 73.39 76.84C72.25 79.12 70.54 81.1 68.26 82.78C66.04 84.4 63.28 85.69 59.98 86.65C56.74 87.55 52.99 88 48.73 88H22L34.15 30.85H57.82C60.16 30.85 62.47 31.03 64.75 31.39C67.09 31.69 69.16 32.32 70.96 33.28C72.82 34.24 74.32 35.59 75.46 37.33C76.6 39.01 77.17 41.2 77.17 43.9ZM52.69 54.79C54.01 54.79 55.12 54.4 56.02 53.62C56.98 52.84 57.76 51.88 58.36 50.74C58.96 49.54 59.41 48.28 59.71 46.96C60.01 45.58 60.16 44.35 60.16 43.27C60.16 41.53 59.74 40.06 58.9 38.86C58.12 37.6 56.86 36.97 55.12 36.97H52.42L48.55 54.79H52.69ZM46.21 82.33C48.01 82.33 49.51 81.82 50.71 80.8C51.91 79.78 52.9 78.52 53.68 77.02C54.46 75.52 55 73.96 55.3 72.34C55.66 70.66 55.84 69.19 55.84 67.93C55.84 65.83 55.39 64.18 54.49 62.98C53.65 61.72 52.27 61.09 50.35 61.09H47.02L42.61 82.33H46.21Z" fill="#605DFF"/>
</svg>
