<svg width="142" height="31" viewBox="0 0 142 31" fill="none" xmlns="http://www.w3.org/2000/svg">
<path d="M7.64 24.32C5.99733 24.32 4.696 24.0853 3.736 23.616C2.776 23.1253 2.05067 22.5173 1.56 21.792C1.06933 21.0667 0.76 20.288 0.632 19.456C0.504 18.6027 0.44 17.824 0.44 17.12C0.44 16.8427 0.461333 16.2987 0.504 15.488C0.568 14.6773 0.642667 13.7387 0.728 12.672C0.813333 11.6053 0.898667 10.4747 0.984 9.28C1.06933 8.064 1.15467 6.92267 1.24 5.856C1.32533 4.768 1.38933 3.808 1.432 2.976C1.496 2.144 1.528 1.568 1.528 1.248C1.528 0.778666 1.56 0.511998 1.624 0.447998C1.688 0.362666 1.88 0.32 2.2 0.32H3.448C4.088 0.32 4.62133 0.394666 5.048 0.543999C5.47467 0.693333 5.816 0.895999 6.072 1.152C6.328 1.408 6.50933 1.70667 6.616 2.048C6.72267 2.368 6.776 2.72 6.776 3.104C6.776 3.46667 6.73333 4.17067 6.648 5.216C6.584 6.26133 6.49867 7.488 6.392 8.896C6.94667 7.936 7.576 7.232 8.28 6.784C8.984 6.31467 9.912 6.08 11.064 6.08C13.0053 6.08 14.488 6.72 15.512 8C16.5573 9.28 17.08 11.1893 17.08 13.728C17.08 14.3893 17.0267 15.1147 16.92 15.904C16.8347 16.6933 16.664 17.4827 16.408 18.272C16.1733 19.04 15.832 19.7973 15.384 20.544C14.9573 21.2693 14.392 21.9093 13.688 22.464C12.984 23.0187 12.1307 23.4667 11.128 23.808C10.1467 24.1493 8.984 24.32 7.64 24.32ZM9.08 10.336C8.312 10.336 7.704 10.5387 7.256 10.944C6.82933 11.3493 6.49867 11.84 6.264 12.416C6.02933 12.992 5.88 13.6107 5.816 14.272C5.752 14.912 5.72 15.4773 5.72 15.968C5.72 17.44 5.92267 18.496 6.328 19.136C6.73333 19.7547 7.34133 20.064 8.152 20.064C8.92 20.064 9.51733 19.8293 9.944 19.36C10.392 18.8693 10.7227 18.2933 10.936 17.632C11.1707 16.9707 11.32 16.2987 11.384 15.616C11.448 14.9333 11.48 14.4 11.48 14.016C11.48 12.8213 11.2987 11.9147 10.936 11.296C10.5733 10.656 9.95467 10.336 9.08 10.336ZM25.6115 9.12C25.6115 9.568 25.5688 10.1973 25.4835 11.008C25.4195 11.8187 25.3448 12.6613 25.2595 13.536C25.1955 14.4107 25.1208 15.232 25.0355 16C24.9715 16.768 24.9395 17.3227 24.9395 17.664C24.9395 18.4107 25.1208 18.9973 25.4835 19.424C25.8675 19.8293 26.3902 20.032 27.0515 20.032C27.6275 20.032 28.1075 19.808 28.4915 19.36C28.8968 18.8907 29.2168 18.2933 29.4515 17.568C29.7075 16.8213 29.9102 15.9787 30.0595 15.04C30.2088 14.1013 30.3155 13.152 30.3795 12.192C30.4648 11.232 30.5288 10.304 30.5715 9.408C30.6355 8.49067 30.6995 7.70133 30.7635 7.04C30.7848 6.86933 30.8488 6.72 30.9555 6.592C31.0622 6.464 31.2328 6.4 31.4675 6.4H32.6195C33.2808 6.4 33.8142 6.47467 34.2195 6.624C34.6462 6.752 34.9768 6.944 35.2115 7.2C35.4675 7.456 35.6382 7.776 35.7235 8.16C35.8302 8.52267 35.8835 8.94933 35.8835 9.44C35.8835 9.76 35.8622 10.2187 35.8195 10.816C35.7982 11.392 35.7448 12.2027 35.6595 13.248C35.5742 14.272 35.4675 15.584 35.3395 17.184C35.2328 18.7627 35.0942 20.7253 34.9235 23.072C34.8808 23.52 34.8275 23.7867 34.7635 23.872C34.7208 23.9573 34.5502 24 34.2515 24H33.0035C32.3635 24 31.8302 23.9253 31.4035 23.776C30.9982 23.6267 30.6675 23.4347 30.4115 23.2C30.1555 22.9653 29.9742 22.688 29.8675 22.368C29.7608 22.048 29.6968 21.7173 29.6755 21.376C29.3555 21.9307 28.9928 22.4 28.5875 22.784C28.2035 23.168 27.7982 23.4773 27.3715 23.712C26.9448 23.9253 26.5075 24.0747 26.0595 24.16C25.6115 24.2667 25.1742 24.32 24.7475 24.32C23.9368 24.32 23.2115 24.192 22.5715 23.936C21.9315 23.6587 21.3875 23.296 20.9395 22.848C20.5128 22.4 20.1822 21.8667 19.9475 21.248C19.7128 20.6293 19.5955 19.968 19.5955 19.264C19.5955 18.9867 19.6062 18.5387 19.6275 17.92C19.6702 17.28 19.7128 16.5653 19.7555 15.776C19.8195 14.9867 19.8835 14.1547 19.9475 13.28C20.0115 12.384 20.0648 11.5413 20.1075 10.752C20.1715 9.96267 20.2248 9.26933 20.2675 8.672C20.3315 8.07467 20.3742 7.648 20.3955 7.392C20.4382 7.008 20.5235 6.752 20.6515 6.624C20.7795 6.47467 20.9928 6.4 21.2915 6.4H22.3155C22.9768 6.4 23.5208 6.464 23.9475 6.592C24.3742 6.72 24.7048 6.90133 24.9395 7.136C25.1955 7.37067 25.3662 7.65867 25.4515 8C25.5582 8.32 25.6115 8.69333 25.6115 9.12ZM44.543 24.32C43.711 24.32 42.911 24.1707 42.143 23.872C41.3963 23.5733 40.735 23.104 40.159 22.464C39.6043 21.824 39.1563 21.0133 38.815 20.032C38.495 19.0507 38.335 17.8667 38.335 16.48C38.335 15.8613 38.3777 15.1787 38.463 14.432C38.5483 13.664 38.6977 12.896 38.911 12.128C39.1243 11.36 39.423 10.6133 39.807 9.888C40.191 9.16267 40.671 8.52267 41.247 7.968C41.8443 7.392 42.5483 6.93333 43.359 6.592C44.191 6.25067 45.1617 6.08 46.271 6.08C47.3377 6.08 48.191 6.272 48.831 6.656C49.4923 7.01867 49.9083 7.65867 50.079 8.576C50.1217 7.744 50.1643 7.01867 50.207 6.4C50.2497 5.78133 50.2817 5.20533 50.303 4.672C50.3457 4.13867 50.3883 3.60533 50.431 3.072C50.4737 2.53867 50.5163 1.93067 50.559 1.248C50.5803 0.778666 50.6337 0.501332 50.719 0.415998C50.7617 0.373332 50.815 0.351999 50.879 0.351999C50.943 0.330666 51.0603 0.32 51.231 0.32H52.479C53.119 0.32 53.6523 0.394666 54.079 0.543999C54.5057 0.693333 54.847 0.895999 55.103 1.152C55.359 1.408 55.5403 1.70667 55.647 2.048C55.7537 2.368 55.807 2.70933 55.807 3.072C55.807 3.072 55.7857 3.33867 55.743 3.872C55.7003 4.40533 55.647 5.12 55.583 6.016C55.519 6.89067 55.4443 7.89333 55.359 9.024C55.2737 10.1547 55.1883 11.328 55.103 12.544C55.0177 13.7387 54.9323 14.9333 54.847 16.128C54.7617 17.3013 54.6763 18.3893 54.591 19.392C54.5057 20.3733 54.431 21.2267 54.367 21.952C54.3243 22.656 54.2923 23.1253 54.271 23.36C54.2283 23.616 54.175 23.7867 54.111 23.872C54.047 23.9573 53.8657 24 53.567 24H52.415C51.967 24 51.5403 23.968 51.135 23.904C50.751 23.8187 50.4097 23.6907 50.111 23.52C49.8337 23.328 49.6097 23.0827 49.439 22.784C49.2897 22.464 49.215 22.0587 49.215 21.568C48.831 22.3787 48.2443 23.04 47.455 23.552C46.687 24.064 45.7163 24.32 44.543 24.32ZM47.327 10.336C46.239 10.336 45.4283 10.816 44.895 11.776C44.383 12.7147 44.127 13.984 44.127 15.584C44.127 16.1387 44.159 16.6827 44.223 17.216C44.3083 17.7493 44.447 18.2293 44.639 18.656C44.831 19.0827 45.087 19.424 45.407 19.68C45.7483 19.936 46.175 20.064 46.687 20.064C47.6043 20.064 48.3723 19.616 48.991 18.72C49.6097 17.824 49.919 16.416 49.919 14.496C49.919 13.9627 49.887 13.4507 49.823 12.96C49.759 12.448 49.631 12 49.439 11.616C49.247 11.232 48.9803 10.9227 48.639 10.688C48.2977 10.4533 47.8603 10.336 47.327 10.336ZM68.6198 20.224C68.0864 21.184 67.4358 21.8987 66.6678 22.368C65.8998 22.816 64.9398 23.04 63.7878 23.04C62.9131 23.04 62.1131 22.9013 61.3878 22.624C60.6624 22.3467 60.0438 21.9093 59.5318 21.312C59.0198 20.7147 58.6144 19.968 58.3158 19.072C58.0384 18.1547 57.8997 17.0667 57.8997 15.808C57.8997 14.784 58.0064 13.7067 58.2198 12.576C58.4331 11.424 58.8171 10.368 59.3718 9.408C59.9478 8.448 60.7264 7.65867 61.7078 7.04C62.6891 6.4 63.9478 6.08 65.4838 6.08C66.1238 6.08 66.6678 6.15467 67.1158 6.304C67.5851 6.432 67.9798 6.61333 68.2998 6.848C68.6411 7.08267 68.9078 7.36 69.0998 7.68C69.3131 8 69.4731 8.34133 69.5798 8.704C69.5798 8.72533 69.5798 8.65067 69.5798 8.48C69.6011 8.288 69.6224 8.07467 69.6438 7.84C69.6651 7.60533 69.6758 7.38133 69.6758 7.168C69.6971 6.93333 69.7078 6.784 69.7078 6.72C69.7291 6.50667 69.8678 6.4 70.1238 6.4H71.5958C72.7051 6.4 73.5051 6.63467 73.9958 7.104C74.5078 7.552 74.7638 8.416 74.7638 9.696C74.7638 9.86667 74.7531 10.2613 74.7318 10.88C74.7104 11.4773 74.6678 12.2027 74.6038 13.056C74.5611 13.9093 74.4971 14.8587 74.4118 15.904C74.3264 16.928 74.2304 17.9627 74.1238 19.008C74.0171 20.0533 73.8998 21.056 73.7718 22.016C73.6438 22.976 73.5051 23.8187 73.3558 24.544C73.2064 25.2693 72.9504 25.9733 72.5878 26.656C72.2251 27.3387 71.7131 27.9467 71.0518 28.48C70.3904 29.0133 69.5371 29.44 68.4918 29.76C67.4678 30.08 66.2091 30.24 64.7158 30.24C63.5851 30.24 62.5931 30.1333 61.7398 29.92C60.9078 29.7067 60.2144 29.4187 59.6598 29.056C59.1051 28.7147 58.6784 28.32 58.3798 27.872C58.1024 27.424 57.9638 26.976 57.9638 26.528C57.9638 26.1227 58.0491 25.7707 58.2198 25.472C58.3904 25.1733 58.6144 24.928 58.8918 24.736C59.1691 24.544 59.4678 24.3947 59.7878 24.288C60.1291 24.2027 60.4491 24.16 60.7478 24.16C61.1104 24.16 61.3771 24.2667 61.5477 24.48C61.7184 24.6933 61.9104 24.928 62.1238 25.184C62.3371 25.4613 62.6358 25.7067 63.0198 25.92C63.4038 26.1333 64.0011 26.24 64.8118 26.24C66.2198 26.24 67.2011 25.7173 67.7558 24.672C68.3318 23.648 68.6198 22.1653 68.6198 20.224ZM65.9318 18.784C66.6998 18.784 67.2971 18.6027 67.7238 18.24C68.1718 17.8773 68.5131 17.44 68.7478 16.928C68.9824 16.416 69.1318 15.8827 69.1958 15.328C69.2598 14.7733 69.2918 14.2933 69.2918 13.888C69.2918 12.608 69.0891 11.7013 68.6838 11.168C68.2998 10.6133 67.7131 10.336 66.9238 10.336C66.1344 10.336 65.5158 10.5493 65.0677 10.976C64.6198 11.4027 64.2784 11.9147 64.0438 12.512C63.8304 13.088 63.6918 13.6747 63.6278 14.272C63.5638 14.848 63.5318 15.296 63.5318 15.616C63.5318 16.6827 63.7131 17.4827 64.0758 18.016C64.4384 18.528 65.0571 18.784 65.9318 18.784ZM84.9853 24.32C84.0466 24.32 83.1079 24.2027 82.1693 23.968C81.2519 23.7333 80.4199 23.328 79.6733 22.752C78.9479 22.176 78.3506 21.408 77.8813 20.448C77.4119 19.488 77.1773 18.2827 77.1773 16.832C77.1773 16.2987 77.2199 15.6587 77.3053 14.912C77.3906 14.1653 77.5506 13.3973 77.7853 12.608C78.0413 11.8187 78.3826 11.04 78.8093 10.272C79.2573 9.48267 79.8333 8.77867 80.5373 8.16C81.2413 7.54133 82.0946 7.04 83.0973 6.656C84.0999 6.272 85.2946 6.08 86.6813 6.08C87.7906 6.08 88.7293 6.208 89.4973 6.464C90.2653 6.72 90.8839 7.072 91.3533 7.52C91.8226 7.94667 92.1639 8.448 92.3773 9.024C92.5906 9.6 92.6973 10.2187 92.6973 10.88C92.6973 11.8613 92.4946 12.6933 92.0893 13.376C91.7053 14.0587 91.1933 14.6347 90.5533 15.104C89.9346 15.552 89.2413 15.904 88.4733 16.16C87.7053 16.416 86.9479 16.6187 86.2013 16.768C85.4546 16.896 84.7613 16.9813 84.1213 17.024C83.5026 17.0453 83.0226 17.056 82.6813 17.056C82.6813 17.4613 82.7346 17.8667 82.8413 18.272C82.9693 18.656 83.1506 18.9973 83.3853 19.296C83.6199 19.5947 83.9293 19.84 84.3133 20.032C84.6973 20.224 85.1666 20.32 85.7213 20.32C86.2759 20.32 86.7026 20.2347 87.0013 20.064C87.3213 19.872 87.5773 19.6693 87.7693 19.456C87.9613 19.2213 88.1213 19.0187 88.2493 18.848C88.3986 18.656 88.5906 18.56 88.8253 18.56C88.9319 18.56 89.1133 18.592 89.3693 18.656C89.6466 18.6987 89.9239 18.8053 90.2013 18.976C90.4786 19.1467 90.7239 19.3813 90.9373 19.68C91.1506 19.9787 91.2573 20.3627 91.2573 20.832C91.2573 21.4507 91.0653 21.984 90.6813 22.432C90.2973 22.88 89.7959 23.2427 89.1773 23.52C88.5799 23.7973 87.9079 24 87.1613 24.128C86.4146 24.256 85.6893 24.32 84.9853 24.32ZM85.5933 10.336C85.1239 10.336 84.7186 10.4747 84.3773 10.752C84.0573 11.008 83.7799 11.3387 83.5453 11.744C83.3319 12.1493 83.1613 12.5973 83.0333 13.088C82.9266 13.5787 82.8413 14.048 82.7773 14.496C84.0999 14.4747 85.1666 14.2507 85.9773 13.824C86.8093 13.3973 87.2253 12.7893 87.2253 12C87.2253 11.5733 87.0866 11.1893 86.8093 10.848C86.5533 10.5067 86.1479 10.336 85.5933 10.336ZM101.505 10.72C101.441 11.5307 101.366 12.3307 101.281 13.12C101.217 13.9093 101.153 14.656 101.089 15.36C101.025 16.064 100.971 16.6933 100.929 17.248C100.907 17.8027 100.897 18.2293 100.897 18.528C100.897 19.0827 100.961 19.456 101.089 19.648C101.217 19.8187 101.43 19.904 101.729 19.904C101.963 19.904 102.166 19.8613 102.337 19.776C102.507 19.6907 102.667 19.5947 102.817 19.488C102.966 19.3813 103.094 19.2853 103.201 19.2C103.329 19.1147 103.467 19.072 103.617 19.072C103.766 19.072 103.905 19.1573 104.033 19.328C104.161 19.4987 104.225 19.8933 104.225 20.512C104.225 21.6853 103.905 22.6133 103.265 23.296C102.625 23.9787 101.526 24.32 99.9685 24.32C98.4325 24.32 97.2912 23.968 96.5445 23.264C95.8192 22.5387 95.4565 21.44 95.4565 19.968C95.4565 19.648 95.4672 19.2747 95.4885 18.848C95.5312 18.4 95.5845 17.824 95.6485 17.12C95.7125 16.416 95.7872 15.552 95.8725 14.528C95.9792 13.504 96.0858 12.2347 96.1925 10.72H94.4965C94.3258 10.72 94.2192 10.688 94.1765 10.624C94.1552 10.5387 94.1445 10.4213 94.1445 10.272L94.2405 8.64C94.2618 8.36267 94.2938 8.096 94.3365 7.84C94.4005 7.56267 94.5072 7.31733 94.6565 7.104C94.8272 6.89067 95.0618 6.72 95.3605 6.592C95.6592 6.464 96.0538 6.4 96.5445 6.4C96.6938 6.016 96.8645 5.55733 97.0565 5.024C97.2485 4.49067 97.4405 3.97867 97.6325 3.488C97.8245 2.976 98.0058 2.54933 98.1765 2.208C98.3685 1.86667 98.5392 1.696 98.6885 1.696H99.6165C100.513 1.696 101.131 1.97333 101.473 2.528C101.814 3.08267 101.985 3.744 101.985 4.512C101.985 4.93867 101.953 5.568 101.889 6.4H105.249C105.59 6.4 105.761 6.54933 105.761 6.848L105.633 8.576C105.59 9.216 105.409 9.73867 105.089 10.144C104.79 10.528 104.161 10.72 103.201 10.72H101.505ZM122.606 21.408C122.606 21.5147 122.552 21.728 122.446 22.048C122.339 22.368 122.168 22.6987 121.934 23.04C121.699 23.3813 121.4 23.68 121.038 23.936C120.696 24.192 120.28 24.32 119.79 24.32C119.214 24.32 118.638 24.128 118.062 23.744C117.507 23.36 116.952 22.8373 116.398 22.176C115.843 21.5147 115.278 20.736 114.702 19.84C114.147 18.9227 113.582 17.9307 113.006 16.864C112.92 17.9947 112.835 19.104 112.75 20.192C112.664 21.28 112.579 22.336 112.494 23.36C112.472 23.616 112.419 23.7867 112.334 23.872C112.248 23.9573 112.067 24 111.79 24H110.638C109.976 24 109.432 23.936 109.006 23.808C108.579 23.6587 108.248 23.456 108.014 23.2C107.779 22.944 107.608 22.624 107.502 22.24C107.416 21.8347 107.374 21.376 107.374 20.864C107.374 20.608 107.384 20.3413 107.406 20.064C107.427 19.7867 107.459 19.392 107.502 18.88C107.544 18.368 107.598 17.696 107.662 16.864C107.747 16.032 107.843 14.9333 107.95 13.568C108.056 12.2027 108.174 10.528 108.302 8.544C108.451 6.53867 108.611 4.10667 108.782 1.248C108.803 0.778666 108.856 0.501332 108.942 0.415998C109.006 0.351999 109.176 0.32 109.454 0.32H110.702C111.363 0.32 111.907 0.394666 112.334 0.543999C112.76 0.693333 113.102 0.895999 113.358 1.152C113.614 1.408 113.784 1.70667 113.87 2.048C113.976 2.38933 114.03 2.74133 114.03 3.104C114.03 3.31733 114.008 3.68 113.966 4.192C113.944 4.68267 113.912 5.29067 113.87 6.016C113.827 6.72 113.763 7.52 113.678 8.416C113.614 9.312 113.55 10.2507 113.486 11.232L118.606 6.56C118.798 6.38933 118.968 6.272 119.118 6.208C119.288 6.144 119.416 6.112 119.502 6.112C119.736 6.112 119.992 6.26133 120.27 6.56C120.547 6.85867 120.803 7.21067 121.038 7.616C121.294 8 121.496 8.40533 121.646 8.832C121.816 9.23733 121.902 9.568 121.902 9.824C121.902 10.4427 121.4 11.0933 120.398 11.776C119.416 12.4587 117.923 13.2267 115.918 14.08C116.814 15.0827 117.667 16 118.478 16.832C119.288 17.664 119.992 18.4 120.59 19.04C121.208 19.68 121.699 20.2027 122.062 20.608C122.424 21.0133 122.606 21.28 122.606 21.408ZM130.768 9.12C130.768 9.568 130.725 10.1973 130.64 11.008C130.576 11.8187 130.501 12.6613 130.416 13.536C130.352 14.4107 130.277 15.232 130.192 16C130.128 16.768 130.096 17.3227 130.096 17.664C130.096 18.4107 130.277 18.9973 130.64 19.424C131.024 19.8293 131.546 20.032 132.208 20.032C132.784 20.032 133.264 19.808 133.648 19.36C134.053 18.8907 134.373 18.2933 134.608 17.568C134.864 16.8213 135.066 15.9787 135.216 15.04C135.365 14.1013 135.472 13.152 135.536 12.192C135.621 11.232 135.685 10.304 135.728 9.408C135.792 8.49067 135.856 7.70133 135.92 7.04C135.941 6.86933 136.005 6.72 136.112 6.592C136.218 6.464 136.389 6.4 136.624 6.4H137.776C138.437 6.4 138.97 6.47467 139.376 6.624C139.802 6.752 140.133 6.944 140.368 7.2C140.624 7.456 140.794 7.776 140.88 8.16C140.986 8.52267 141.04 8.94933 141.04 9.44C141.04 9.76 141.018 10.2187 140.976 10.816C140.954 11.392 140.901 12.2027 140.816 13.248C140.73 14.272 140.624 15.584 140.496 17.184C140.389 18.7627 140.25 20.7253 140.08 23.072C140.037 23.52 139.984 23.7867 139.92 23.872C139.877 23.9573 139.706 24 139.408 24H138.16C137.52 24 136.986 23.9253 136.56 23.776C136.154 23.6267 135.824 23.4347 135.568 23.2C135.312 22.9653 135.13 22.688 135.024 22.368C134.917 22.048 134.853 21.7173 134.832 21.376C134.512 21.9307 134.149 22.4 133.744 22.784C133.36 23.168 132.954 23.4773 132.528 23.712C132.101 23.9253 131.664 24.0747 131.216 24.16C130.768 24.2667 130.33 24.32 129.904 24.32C129.093 24.32 128.368 24.192 127.728 23.936C127.088 23.6587 126.544 23.296 126.096 22.848C125.669 22.4 125.338 21.8667 125.104 21.248C124.869 20.6293 124.752 19.968 124.752 19.264C124.752 18.9867 124.762 18.5387 124.784 17.92C124.826 17.28 124.869 16.5653 124.912 15.776C124.976 14.9867 125.04 14.1547 125.104 13.28C125.168 12.384 125.221 11.5413 125.264 10.752C125.328 9.96267 125.381 9.26933 125.424 8.672C125.488 8.07467 125.53 7.648 125.552 7.392C125.594 7.008 125.68 6.752 125.808 6.624C125.936 6.47467 126.149 6.4 126.448 6.4H127.472C128.133 6.4 128.677 6.464 129.104 6.592C129.53 6.72 129.861 6.90133 130.096 7.136C130.352 7.37067 130.522 7.65867 130.608 8C130.714 8.32 130.768 8.69333 130.768 9.12Z" fill="#605DFF"/>
</svg>
