<svg width="150" height="158" viewBox="0 0 150 158" fill="none" xmlns="http://www.w3.org/2000/svg">
<rect x="2.5" y="6.5" width="145" height="145" rx="72.5" fill="white" stroke="#605DFF" stroke-width="5"/>
<path d="M112.625 60.75C112.625 63.1667 112.25 65.3333 111.5 67.25C110.833 69.1667 109.875 70.875 108.625 72.375C107.375 73.875 105.917 75.2083 104.25 76.375C102.583 77.5417 100.75 78.625 98.75 79.625C99.6667 79.9583 100.75 80.5 102 81.25C103.25 81.9167 104.458 82.875 105.625 84.125C106.792 85.375 107.75 87 108.5 89C109.333 90.9167 109.75 93.2917 109.75 96.125C109.75 99.875 108.958 103.333 107.375 106.5C105.792 109.667 103.417 112.417 100.25 114.75C97.1667 117 93.3333 118.792 88.75 120.125C84.25 121.375 79.0417 122 73.125 122H36L52.875 42.625H85.75C89 42.625 92.2083 42.875 95.375 43.375C98.625 43.7917 101.5 44.6667 104 46C106.583 47.3333 108.667 49.2083 110.25 51.625C111.833 53.9583 112.625 57 112.625 60.75ZM78.625 75.875C80.4583 75.875 82 75.3333 83.25 74.25C84.5833 73.1667 85.6667 71.8333 86.5 70.25C87.3333 68.5833 87.9583 66.8333 88.375 65C88.7917 63.0833 89 61.375 89 59.875C89 57.4583 88.4167 55.4167 87.25 53.75C86.1667 52 84.4167 51.125 82 51.125H78.25L72.875 75.875H78.625ZM69.625 114.125C72.125 114.125 74.2083 113.417 75.875 112C77.5417 110.583 78.9167 108.833 80 106.75C81.0833 104.667 81.8333 102.5 82.25 100.25C82.75 97.9167 83 95.875 83 94.125C83 91.2083 82.375 88.9167 81.125 87.25C79.9583 85.5 78.0417 84.625 75.375 84.625H70.75L64.625 114.125H69.625Z" fill="#605DFF"/>
</svg>
