<svg width="30" height="30" viewBox="0 0 30 30" fill="none" xmlns="http://www.w3.org/2000/svg">
<path d="M29.9842 15.2806C29.9842 14.0515 29.8821 13.1546 29.6613 12.2245H15.2988V17.772H23.7292C23.5593 19.1506 22.6415 21.2268 20.6018 22.6219L20.5732 22.8076L25.1144 26.2454L25.429 26.2761C28.3184 23.6683 29.9842 19.8315 29.9842 15.2806" fill="#4285F4"/>
<path d="M15.2989 29.897C19.4291 29.897 22.8965 28.5682 25.4291 26.2761L20.6019 22.622C19.3102 23.5023 17.5765 24.1168 15.2989 24.1168C11.2537 24.1168 7.82029 21.5092 6.59639 17.905L6.417 17.9199L1.69505 21.4909L1.6333 21.6586C4.14883 26.5418 9.31592 29.897 15.2989 29.897Z" fill="#34A853"/>
<path d="M6.5967 17.9049C6.27377 16.9748 6.08687 15.9782 6.08687 14.9484C6.08687 13.9186 6.27377 12.9221 6.57971 11.992L6.57116 11.7939L1.79005 8.16547L1.63362 8.23818C0.596853 10.2646 0.00195312 12.5401 0.00195312 14.9484C0.00195312 17.3568 0.596853 19.6322 1.63362 21.6586L6.5967 17.9049" fill="#FBBC05"/>
<path d="M15.2989 5.78004C18.1713 5.78004 20.1089 6.99252 21.2138 8.00576L25.531 3.8866C22.8795 1.47824 19.4291 0 15.2989 0C9.31591 0 4.14882 3.35508 1.6333 8.23821L6.57939 11.992C7.82028 8.38775 11.2536 5.78004 15.2989 5.78004" fill="#EB4335"/>
</svg>
