<svg width="158" height="29" viewBox="0 0 158 29" fill="none" xmlns="http://www.w3.org/2000/svg">
<path d="M43.517 23V5.54545H50.5057C51.7898 5.54545 52.8608 5.7358 53.7188 6.11648C54.5767 6.49716 55.2216 7.02557 55.6534 7.7017C56.0852 8.37216 56.3011 9.14489 56.3011 10.0199C56.3011 10.7017 56.1648 11.3011 55.892 11.8182C55.6193 12.3295 55.2443 12.75 54.767 13.0795C54.2955 13.4034 53.7557 13.6335 53.1477 13.7699V13.9403C53.8125 13.9687 54.4347 14.1562 55.0142 14.5028C55.5994 14.8494 56.0739 15.3352 56.4375 15.9602C56.8011 16.5795 56.983 17.3182 56.983 18.1761C56.983 19.1023 56.7528 19.929 56.2926 20.6562C55.8381 21.3778 55.1648 21.9489 54.2727 22.3693C53.3807 22.7898 52.2813 23 50.9744 23H43.517ZM47.2074 19.983H50.2159C51.2443 19.983 51.9943 19.7869 52.4659 19.3949C52.9375 18.9972 53.1733 18.4687 53.1733 17.8097C53.1733 17.3267 53.0568 16.9006 52.8239 16.5312C52.5909 16.1619 52.2585 15.8722 51.8267 15.6619C51.4006 15.4517 50.892 15.3466 50.3011 15.3466H47.2074V19.983ZM47.2074 12.8494H49.9432C50.4489 12.8494 50.8977 12.7614 51.2898 12.5852C51.6875 12.4034 52 12.1477 52.2273 11.8182C52.4602 11.4886 52.5767 11.0938 52.5767 10.6335C52.5767 10.0028 52.3523 9.49432 51.9034 9.10795C51.4602 8.72159 50.8295 8.52841 50.0114 8.52841H47.2074V12.8494ZM67.7109 17.4261V9.90909H71.3416V23H67.8558V20.6222H67.7195C67.424 21.3892 66.9325 22.0057 66.245 22.4716C65.5632 22.9375 64.7308 23.1705 63.7479 23.1705C62.8729 23.1705 62.103 22.9716 61.4382 22.5739C60.7734 22.1761 60.2536 21.6108 59.8786 20.8778C59.5092 20.1449 59.3217 19.267 59.3161 18.2443V9.90909H62.9467V17.5966C62.9524 18.3693 63.1598 18.9801 63.5689 19.429C63.978 19.8778 64.5263 20.1023 65.2138 20.1023C65.6513 20.1023 66.0604 20.0028 66.4411 19.804C66.8217 19.5994 67.1286 19.2983 67.3615 18.9006C67.6001 18.5028 67.7166 18.0114 67.7109 17.4261ZM79.0696 23.2131C78.0753 23.2131 77.1747 22.9574 76.3679 22.446C75.5668 21.929 74.9304 21.1705 74.4588 20.1705C73.9929 19.1648 73.7599 17.9318 73.7599 16.4716C73.7599 14.9716 74.0014 13.7244 74.4844 12.7301C74.9673 11.7301 75.6094 10.983 76.4105 10.4886C77.2173 9.98864 78.1009 9.73864 79.0611 9.73864C79.794 9.73864 80.4048 9.86364 80.8935 10.1136C81.3878 10.358 81.7855 10.6648 82.0866 11.0341C82.3935 11.3977 82.6264 11.7557 82.7855 12.108H82.8963V5.54545H86.5185V23H82.9389V20.9034H82.7855C82.6151 21.267 82.3736 21.6278 82.0611 21.9858C81.7543 22.3381 81.3537 22.6307 80.8594 22.8636C80.3707 23.0966 79.7741 23.2131 79.0696 23.2131ZM80.2202 20.3239C80.8054 20.3239 81.2997 20.1648 81.7031 19.8466C82.1122 19.5227 82.4247 19.071 82.6406 18.4915C82.8622 17.9119 82.973 17.233 82.973 16.4545C82.973 15.6761 82.8651 15 82.6491 14.4261C82.4332 13.8523 82.1207 13.4091 81.7116 13.0966C81.3026 12.7841 80.8054 12.6278 80.2202 12.6278C79.6236 12.6278 79.1207 12.7898 78.7116 13.1136C78.3026 13.4375 77.9929 13.8864 77.7827 14.4602C77.5724 15.0341 77.4673 15.6989 77.4673 16.4545C77.4673 17.2159 77.5724 17.8892 77.7827 18.4744C77.9986 19.054 78.3082 19.5085 78.7116 19.8381C79.1207 20.1619 79.6236 20.3239 80.2202 20.3239ZM95.4013 28.1818C94.2251 28.1818 93.2166 28.0199 92.3757 27.696C91.5405 27.3778 90.8757 26.9432 90.3814 26.392C89.8871 25.8409 89.5661 25.2216 89.4183 24.5341L92.7763 24.0824C92.8786 24.3438 93.0405 24.5881 93.2621 24.8153C93.4837 25.0426 93.7763 25.2244 94.1399 25.3608C94.5092 25.5028 94.9581 25.5739 95.4865 25.5739C96.2763 25.5739 96.9268 25.3807 97.4382 24.9943C97.9553 24.6136 98.2138 23.9744 98.2138 23.0767V20.6818H98.0604C97.9013 21.0455 97.6626 21.3892 97.3445 21.7131C97.0263 22.0369 96.6172 22.3011 96.1172 22.5057C95.6172 22.7102 95.0206 22.8125 94.3274 22.8125C93.3445 22.8125 92.4496 22.5852 91.6428 22.1307C90.8416 21.6705 90.2024 20.9687 89.7251 20.0256C89.2536 19.0767 89.0178 17.8778 89.0178 16.429C89.0178 14.946 89.2592 13.7074 89.7422 12.7131C90.2251 11.7187 90.8672 10.9744 91.6683 10.4801C92.4751 9.9858 93.3587 9.73864 94.3189 9.73864C95.0518 9.73864 95.6655 9.86364 96.1598 10.1136C96.6541 10.358 97.0518 10.6648 97.353 11.0341C97.6598 11.3977 97.8956 11.7557 98.0604 12.108H98.1967V9.90909H101.802V23.1278C101.802 24.2415 101.529 25.1733 100.984 25.9233C100.438 26.6733 99.6825 27.2358 98.7166 27.6108C97.7564 27.9915 96.6513 28.1818 95.4013 28.1818ZM95.478 20.0852C96.0632 20.0852 96.5575 19.9403 96.9609 19.6506C97.37 19.3551 97.6825 18.9347 97.8984 18.3892C98.12 17.8381 98.2308 17.179 98.2308 16.4119C98.2308 15.6449 98.1229 14.9801 97.907 14.4176C97.6911 13.8494 97.3786 13.4091 96.9695 13.0966C96.5604 12.7841 96.0632 12.6278 95.478 12.6278C94.8814 12.6278 94.3786 12.7898 93.9695 13.1136C93.5604 13.4318 93.2507 13.875 93.0405 14.4432C92.8303 15.0114 92.7251 15.6676 92.7251 16.4119C92.7251 17.1676 92.8303 17.821 93.0405 18.3722C93.2564 18.9176 93.5661 19.3409 93.9695 19.642C94.3786 19.9375 94.8814 20.0852 95.478 20.0852ZM110.657 23.2557C109.31 23.2557 108.151 22.983 107.18 22.4375C106.214 21.8864 105.469 21.108 104.947 20.1023C104.424 19.0909 104.163 17.8949 104.163 16.5142C104.163 15.1676 104.424 13.9858 104.947 12.9688C105.469 11.9517 106.205 11.1591 107.154 10.5909C108.109 10.0227 109.228 9.73864 110.512 9.73864C111.376 9.73864 112.18 9.87784 112.924 10.1562C113.674 10.429 114.327 10.8409 114.884 11.392C115.447 11.9432 115.884 12.6364 116.197 13.4716C116.509 14.3011 116.665 15.2727 116.665 16.3864V17.3835H105.612V15.1335H113.248C113.248 14.6108 113.134 14.1477 112.907 13.7443C112.68 13.3409 112.364 13.0256 111.961 12.7983C111.563 12.5653 111.1 12.4489 110.572 12.4489C110.021 12.4489 109.532 12.5767 109.106 12.8324C108.685 13.0824 108.356 13.4205 108.117 13.8466C107.879 14.267 107.756 14.7358 107.751 15.2528V17.392C107.751 18.0398 107.87 18.5994 108.109 19.071C108.353 19.5426 108.697 19.9062 109.14 20.1619C109.583 20.4176 110.109 20.5455 110.717 20.5455C111.12 20.5455 111.489 20.4886 111.825 20.375C112.16 20.2614 112.447 20.0909 112.685 19.8636C112.924 19.6364 113.106 19.358 113.231 19.0284L116.589 19.25C116.418 20.0568 116.069 20.7614 115.54 21.3636C115.018 21.9602 114.342 22.4261 113.512 22.7614C112.688 23.0909 111.737 23.2557 110.657 23.2557ZM125.998 9.90909V12.6364H118.114V9.90909H125.998ZM119.904 6.77273H123.535V18.9773C123.535 19.3125 123.586 19.5739 123.688 19.7614C123.79 19.9432 123.933 20.071 124.114 20.1449C124.302 20.2187 124.518 20.2557 124.762 20.2557C124.933 20.2557 125.103 20.2415 125.273 20.2131C125.444 20.179 125.575 20.1534 125.665 20.1364L126.237 22.8381C126.055 22.8949 125.799 22.9602 125.469 23.0341C125.14 23.1136 124.739 23.1619 124.268 23.179C123.393 23.2131 122.626 23.0966 121.967 22.8295C121.313 22.5625 120.805 22.1477 120.441 21.5852C120.077 21.0227 119.898 20.3125 119.904 19.4545V6.77273ZM128.712 23V5.54545H132.403V13.2415H132.633L138.914 5.54545H143.337L136.86 13.3608L143.414 23H138.999L134.218 15.8239L132.403 18.0398V23H128.712ZM152.766 17.4261V9.90909H156.396V23H152.911V20.6222H152.774C152.479 21.3892 151.987 22.0057 151.3 22.4716C150.618 22.9375 149.786 23.1705 148.803 23.1705C147.928 23.1705 147.158 22.9716 146.493 22.5739C145.828 22.1761 145.308 21.6108 144.933 20.8778C144.564 20.1449 144.376 19.267 144.371 18.2443V9.90909H148.001V17.5966C148.007 18.3693 148.214 18.9801 148.624 19.429C149.033 19.8778 149.581 20.1023 150.268 20.1023C150.706 20.1023 151.115 20.0028 151.496 19.804C151.876 19.5994 152.183 19.2983 152.416 18.9006C152.655 18.5028 152.771 18.0114 152.766 17.4261Z" fill="black"/>
<g clip-path="url(#clip0_1309_12)">
<path fill-rule="evenodd" clip-rule="evenodd" d="M23.4349 8.1487H30.3047C31.237 8.1487 32 8.91028 32 9.84082V16.7731C32 17.7036 31.237 18.4652 30.3047 18.4652H23.4349C20.5938 18.4652 18.2682 16.144 18.2682 13.3082C18.2682 10.4672 20.5911 8.1487 23.4349 8.1487ZM0.807292 9.5497H13.9063C14.349 9.5497 14.7135 9.911 14.7135 10.3555V28.1942C14.7135 28.6387 14.3516 29 13.9063 29H0.807292C0.364583 29 0 28.6387 0 28.1942V10.3555C0 9.9136 0.361979 9.5497 0.807292 9.5497ZM8.23438 12.9989H9.57813V14.0906H8.23438V12.9989ZM10.6068 12.9989H11.9505V14.0906H10.6068V12.9989ZM1.90365 17.3683H4.14063C4.33073 17.3683 4.48958 17.5242 4.48958 17.7166V19.6011C4.48958 19.7908 4.33333 19.9494 4.14063 19.9494H1.90365C1.71354 19.9494 1.55469 19.7934 1.55469 19.6011V17.7166C1.55469 17.5242 1.71094 17.3683 1.90365 17.3683ZM10.4792 24.5033H12.7135C12.9036 24.5033 13.0599 24.6592 13.0599 24.8516V26.736C13.0599 26.9284 12.9036 27.0843 12.7135 27.0843H10.4792C10.2891 27.0843 10.1302 26.9284 10.1302 26.736V24.8516C10.1302 24.6592 10.2865 24.5033 10.4792 24.5033ZM6.19271 24.5033H8.42969C8.61979 24.5033 8.77865 24.6592 8.77865 24.8516V26.736C8.77865 26.9284 8.6224 27.0843 8.42969 27.0843H6.19271C6.0026 27.0843 5.84375 26.9284 5.84375 26.736V24.8516C5.84375 24.6592 6 24.5033 6.19271 24.5033ZM1.90365 24.5033H4.14063C4.33073 24.5033 4.48958 24.6592 4.48958 24.8516V26.736C4.48958 26.9284 4.33333 27.0843 4.14063 27.0843H1.90365C1.71354 27.0843 1.55469 26.9284 1.55469 26.736V24.8516C1.55469 24.6592 1.71094 24.5033 1.90365 24.5033ZM10.4792 20.9345H12.7135C12.9036 20.9345 13.0599 21.0904 13.0599 21.2828V23.1673C13.0599 23.357 12.9036 23.5156 12.7135 23.5156H10.4792C10.2891 23.5156 10.1302 23.3596 10.1302 23.1673V21.2828C10.1302 21.0904 10.2865 20.9345 10.4792 20.9345ZM6.19271 20.9345H8.42969C8.61979 20.9345 8.77865 21.0904 8.77865 21.2828V23.1673C8.77865 23.357 8.6224 23.5156 8.42969 23.5156H6.19271C6.0026 23.5156 5.84375 23.3596 5.84375 23.1673V21.2828C5.84375 21.0904 6 20.9345 6.19271 20.9345ZM1.90365 20.9345H4.14063C4.33073 20.9345 4.48958 21.0904 4.48958 21.2828V23.1673C4.48958 23.357 4.33333 23.5156 4.14063 23.5156H1.90365C1.71354 23.5156 1.55469 23.3596 1.55469 23.1673V21.2828C1.55469 21.0904 1.71094 20.9345 1.90365 20.9345ZM10.4792 17.3683H12.7135C12.9036 17.3683 13.0599 17.5242 13.0599 17.7166V19.6011C13.0599 19.7908 12.9036 19.9494 12.7135 19.9494H10.4792C10.2891 19.9494 10.1302 19.7934 10.1302 19.6011V17.7166C10.1302 17.5242 10.2865 17.3683 10.4792 17.3683ZM6.19271 17.3683H8.42969C8.61979 17.3683 8.77865 17.5242 8.77865 17.7166V19.6011C8.77865 19.7908 8.6224 19.9494 8.42969 19.9494H6.19271C6.0026 19.9494 5.84375 19.7934 5.84375 19.6011V17.7166C5.84375 17.5242 6 17.3683 6.19271 17.3683ZM1.72135 11.195H12.8281C12.974 11.195 13.0938 11.3146 13.0938 11.4602V15.1017C13.0938 15.2473 12.9766 15.3669 12.8281 15.3669H1.72135C1.57552 15.3669 1.45573 15.2473 1.45573 15.1017V11.4602C1.45573 11.3146 1.57552 11.195 1.72135 11.195ZM7.1849 0.00520245H11.5703L23.8073 0.00260319L25.4193 3.92339e-06C27.0677 -0.00259534 28.4141 1.28664 28.4141 2.92938V3.41804C29.2266 3.95349 29.7656 4.87363 29.7656 5.91333V6.99203H27.8646V6.27203C27.8646 5.49745 27.2292 4.86843 26.4583 4.86843H8.95833V3.30367C8.95833 3.09573 9.13021 2.92418 9.33854 2.92418C15.1458 2.92418 20.9583 2.92158 26.7708 2.92158C26.8802 2.92158 26.987 2.92678 27.0938 2.93977V2.86699C27.0938 2.32375 26.6484 1.87927 26.1068 1.87927C19.9453 1.87927 13.7813 1.88187 7.61719 1.88187C7.07292 1.88187 6.6276 2.32635 6.6276 2.86699V6.75809H4.47135V2.71884C4.46354 1.22686 5.6875 0.00520245 7.1849 0.00520245ZM17.2422 21.8156H26.8542C27.3984 21.8156 27.8438 21.3712 27.8438 20.8279V19.6972H29.7943V21.5635H29.7891C29.7813 22.8527 28.401 23.895 27.0391 23.895H17.2422V21.8156ZM23.6953 10.0384H29.7917V16.5755H23.6953C21.8932 16.5755 20.4219 15.1043 20.4219 13.3056C20.4193 11.5069 21.8932 10.0384 23.6953 10.0384ZM25.1927 12.2243C25.8099 12.2243 26.3099 12.7234 26.3099 13.3394C26.3099 13.9555 25.8099 14.4545 25.1927 14.4545C24.5755 14.4545 24.0755 13.9555 24.0755 13.3394C24.0755 12.7234 24.5755 12.2243 25.1927 12.2243Z" fill="#4D4AFB"/>
</g>
<defs>
<clipPath id="clip0_1309_12">
<rect width="32" height="29" fill="white"/>
</clipPath>
</defs>
</svg>
