<svg id="_0248_checklist_1" xmlns="http://www.w3.org/2000/svg" viewBox="0 0 500 500" data-imageid="checklist-1-7" imageName="Checklist 1" class="illustrations_image" style="width: 161px;"><defs><style>.cls-1_checklist-1-7{fill:#fff;}.cls-2_checklist-1-7{fill:#f4a28c;}.cls-3_checklist-1-7{fill:#a5a5a5;}.cls-4_checklist-1-7{opacity:.21;}.cls-4_checklist-1-7,.cls-5_checklist-1-7{fill:none;}.cls-6_checklist-1-7{fill:#24285b;}.cls-7_checklist-1-7{fill:#000001;}.cls-8_checklist-1-7{fill:#ffd200;}.cls-5_checklist-1-7{opacity:.1;}.cls-9_checklist-1-7{fill:#68e1fd;}</style></defs><g id="task_checklist-1-7"><path class="cls-2_checklist-1-7" d="m92.75,223.45s16.74-78.78,58.87-78.78,64.54,123.83-37.94,137.3l-20.93-58.53Z"/><g class="cls-5_checklist-1-7"><path class="cls-7_checklist-1-7" d="m92.75,223.45s16.74-78.78,58.87-78.78,64.54,123.83-37.94,137.3l-20.93-58.53Z"/></g><rect class="cls-6_checklist-1-7" x="128.12" y="59.75" width="262.12" height="345.18"/><rect class="cls-1_checklist-1-7" x="153.49" y="79.48" width="210.45" height="278.09"/><rect class="cls-8_checklist-1-7" x="203.28" y="40.21" width="114.62" height="48.67"/><g class="cls-4_checklist-1-7"><rect class="cls-3_checklist-1-7" x="247.75" y="204.22" width="51.99" height="11.46"/></g><g class="cls-4_checklist-1-7"><rect class="cls-3_checklist-1-7" x="247.75" y="227" width="82.36" height="11.46"/></g><g class="cls-4_checklist-1-7"><rect class="cls-3_checklist-1-7" x="247.75" y="277.93" width="51.99" height="11.46"/></g><g class="cls-4_checklist-1-7"><rect class="cls-3_checklist-1-7" x="247.75" y="300.71" width="51.99" height="11.46"/></g><rect class="cls-9_checklist-1-7 targetColor" x="180.26" y="124.11" width="46.98" height="46.98" style="fill: rgb(96, 93, 255);"/><rect class="cls-9_checklist-1-7 targetColor" x="180.26" y="197.39" width="46.98" height="46.98" style="fill: rgb(96, 93, 255);"/><rect class="cls-9_checklist-1-7 targetColor" x="180.26" y="270.67" width="46.98" height="46.98" style="fill: rgb(96, 93, 255);"/><path class="cls-1_checklist-1-7" d="m201.6,158.02s-.05,0-.07,0c-.77-.02-1.48-.41-1.92-1.05l-5.53-8.08c-.75-1.1-.47-2.59.63-3.35,1.1-.75,2.59-.47,3.34.63l3.66,5.34,9.45-12.26c.81-1.05,2.32-1.25,3.38-.44,1.05.81,1.25,2.32.44,3.38l-11.48,14.88c-.46.59-1.16.94-1.91.94Z"/><path class="cls-1_checklist-1-7" d="m201.6,231.18s-.05,0-.07,0c-.77-.02-1.48-.41-1.92-1.05l-5.53-8.08c-.75-1.1-.47-2.59.63-3.35,1.1-.75,2.59-.47,3.34.63l3.66,5.34,9.45-12.26c.81-1.05,2.32-1.25,3.38-.44,1.05.81,1.25,2.32.44,3.38l-11.48,14.88c-.46.59-1.16.94-1.91.94Z"/><g class="cls-5_checklist-1-7"><path class="cls-7_checklist-1-7" d="m260.18,223.21l-11.14,8.13,22.5,6.68,26.22,1.72s3.54,24.64,18.85,44.27c16.13,20.67,23.51,46.84,21.63,72.99h0c-.02.32.41.42.54.13l47.42.46-18.84-145.84-107.18,11.47Z"/></g><path class="cls-1_checklist-1-7" d="m201.6,304.9s-.05,0-.07,0c-.77-.02-1.48-.41-1.92-1.05l-5.53-8.08c-.75-1.1-.47-2.59.63-3.35,1.1-.75,2.59-.47,3.34.63l3.66,5.34,9.45-12.26c.81-1.05,2.32-1.25,3.38-.44,1.05.81,1.25,2.32.44,3.38l-11.48,14.88c-.46.59-1.16.94-1.91.94Z"/><path class="cls-2_checklist-1-7" d="m125.75,194.2s32.52-33.26,46.56-30.3c11.59,2.44,11.6,25.5-13.65,44.71-10.36,7.88-16.89,19.68-17.76,32.67-.72,10.74-4.26,23.5-15.16,33.15-22.91,20.29-39.91,2.61-37.69-24.77,2.22-27.38,3.7-35.51,37.69-55.46Z"/><polygon class="cls-9_checklist-1-7 targetColor" points="138.4 270.05 126.18 439.23 25.9 419.99 76.32 251.24 138.4 270.05" style="fill: rgb(96, 93, 255);"/><g class="cls-4_checklist-1-7"><rect class="cls-3_checklist-1-7" x="247.75" y="129.28" width="51.99" height="11.46"/></g><g class="cls-4_checklist-1-7"><rect class="cls-3_checklist-1-7" x="247.75" y="152.06" width="82.36" height="11.46"/></g><g class="cls-5_checklist-1-7"><polygon class="cls-7_checklist-1-7" points="87.03 431.72 108.76 261.07 138.4 270.05 126.18 439.23 87.03 431.72"/></g></g><g id="pen_checklist-1-7"><polygon class="cls-6_checklist-1-7" points="266.39 208.53 240.39 219.95 267.53 227.29 266.39 208.53"/><path class="cls-2_checklist-1-7" d="m387.66,213.4s-15.59-31.92-58.03-31.5c-33.26.33-25.55,19.86-10.03,25.47,15.52,5.62,45.4,5.69,33.24,30.29-10.73,21.68-25.33-21.73-41.71-26.98-16.38-5.25-21.92,13.57-6.41,31.43s34.25,50.51,62.49,42.4c28.24-8.11,34.33-40.53,20.45-71.12Z"/><rect class="cls-9_checklist-1-7 targetColor" x="339.53" y="130.81" width="18.8" height="164.23" transform="translate(540.26 -148.29) rotate(86.52)" style="fill: rgb(96, 93, 255);"/><polygon class="cls-9_checklist-1-7 targetColor" points="350.92 285.16 379.75 459.79 474.1 428.59 400.35 257.4 350.92 285.16" style="fill: rgb(96, 93, 255);"/><g class="cls-5_checklist-1-7"><polygon class="cls-7_checklist-1-7" points="350.92 285.16 373.8 272.31 421.49 445.99 379.75 459.79 350.92 285.16"/></g></g></svg>